HIERARCHY
ROOT Hips
{
  OFFSET 0.000000 0.000000 0.000000
  CHANNELS 6 Xposition Yposition Zposition Xrotation Yrotation Zrotation
  JOINT Spine
  {
    OFFSET 0.211591 24.227834 -3.764787
    CHANNELS 3 Xrotation Yrotation Zrotation
    JOINT Chest
    {
      OFFSET 0.211591 24.227834 -3.764787
      CHANNELS 3 Xrotation Yrotation Zrotation
      JOINT Neck
      {
        OFFSET -1.100772 8.441563 -3.430650
        CHANNELS 3 Xrotation Yrotation Zrotation
        JOINT Head
        {
          OFFSET -1.192129 7.757112 -7.601908
          CHANNELS 3 Xrotation Yrotation Zrotation
          End Site
          {
            OFFSET -0.357639 2.327134 -2.280572
          }
        }
      }
      JOINT LeftShoulder
      {
        OFFSET 17.192089 0.613400 -1.554494
        CHANNELS 3 Xrotation Yrotation Zrotation
        JOINT LeftArm
        {
          OFFSET 6.822346 -20.001605 -11.416031
          CHANNELS 3 Xrotation Yrotation Zrotation
          JOINT LeftForeArm
          {
            OFFSET -10.811707 -3.287858 -20.004664
            CHANNELS 3 Xrotation Yrotation Zrotation
            JOINT LeftHand
            {
              OFFSET -2.972239 -0.032078 -2.791873
              CHANNELS 3 Xrotation Yrotation Zrotation
              End Site
              {
                OFFSET -0.891672 -0.009623 -0.837562
              }
            }
          }
        }
      }
      JOINT RightShoulder
      {
        OFFSET -17.192089 -0.613400 1.554494
        CHANNELS 3 Xrotation Yrotation Zrotation
        JOINT RightArm
        {
          OFFSET -7.078612 -20.128798 -9.457155
          CHANNELS 3 Xrotation Yrotation Zrotation
          JOINT RightForeArm
          {
            OFFSET 6.068787 -1.370308 -22.325569
            CHANNELS 3 Xrotation Yrotation Zrotation
            JOINT RightHand
            {
              OFFSET 2.627653 0.279547 -3.282648
              CHANNELS 3 Xrotation Yrotation Zrotation
              End Site
              {
                OFFSET 0.788296 0.083864 -0.984794
              }
            }
          }
        }
      }
    }
  }
  JOINT LeftUpLeg
  {
    OFFSET 11.367086 0.027478 -2.758015
    CHANNELS 3 Xrotation Yrotation Zrotation
    JOINT LeftLeg
    {
      OFFSET 2.451199 -39.057141 -4.768226
      CHANNELS 3 Xrotation Yrotation Zrotation
      JOINT LeftFoot
      {
        OFFSET 10.058204 -39.973237 0.774249
        CHANNELS 3 Xrotation Yrotation Zrotation
        End Site
        {
          OFFSET 3.017461 -11.991971 0.232275
        }
      }
    }
  }
  JOINT RightUpLeg
  {
    OFFSET -11.367086 -0.027478 2.758015
    CHANNELS 3 Xrotation Yrotation Zrotation
    JOINT RightLeg
    {
      OFFSET -4.668361 -37.080477 -5.635053
      CHANNELS 3 Xrotation Yrotation Zrotation
      JOINT RightFoot
      {
        OFFSET -2.542494 -41.040053 5.594103
        CHANNELS 3 Xrotation Yrotation Zrotation
        End Site
        {
          OFFSET -0.762748 -12.312016 1.678231
        }
      }
    }
  }
}
MOTION
Frames: 17
Frame Time: 0.083333
0.000000 60.000000 0.000000 -0.697435 0.072172 0.388394 -0.697435 0.072172 0.388394 -0.340980 -0.195332 -0.344975 -0.296376 -0.398572 -0.341483 5.000000 0.000000 0.000000 1.736840 0.323090 0.456205 7.645937 -0.590864 -0.773710 0.000000 0.000000 0.000000 0.000000 0.000000 0.000000 0.794111 -0.282190 0.002214 2.851025 -0.309081 0.159378 0.000000 0.000000 0.000000 0.000000 0.000000 0.000000 -0.435201 -0.021333 -0.067899 -1.838628 -0.439721 0.377621 0.000000 0.000000 0.000000 -0.908458 0.283776 -1.338881 -3.100452 0.313015 0.732276 0.000000 0.000000 0.000000
0.404420 60.000000 1.105835 -0.696426 0.072060 0.387906 -0.696426 0.072060 0.387906 -0.347761 -0.205596 -0.365058 -0.302848 -0.423933 -0.363971 5.000000 0.000000 0.000000 1.727130 0.300571 0.481776 6.827943 -0.554870 -0.692341 0.000000 0.000000 0.000000 0.000000 0.000000 0.000000 1.046602 -0.311869 -0.114333 2.632807 -0.255006 0.145843 0.000000 0.000000 0.000000 0.000000 0.000000 0.000000 -0.428220 -0.024783 -0.037327 -1.864355 -0.443148 0.419078 0.000000 0.000000 0.000000 -0.934854 0.288733 -1.356212 -3.130585 0.314257 0.728154 0.000000 0.000000 0.000000
1.336399 60.000000 4.095054 -0.696430 0.072041 0.387790 -0.696430 0.072041 0.387790 -0.347767 -0.205898 -0.365765 -0.302812 -0.424696 -0.364738 5.000000 0.000000 0.000000 4.794206 0.739373 1.475076 17.060041 -1.466984 -1.734552 0.000000 0.000000 0.000000 0.000000 0.000000 0.000000 3.649363 -0.860225 -0.830601 6.692520 -0.622859 0.367945 -148.996185 -20.662163 -97.898678 0.000000 0.000000 0.000000 -0.427382 -0.024931 -0.036043 -1.865061 -0.443267 0.419907 0.000000 0.000000 0.000000 -0.936261 0.288994 -1.357500 -3.131195 0.314240 0.727849 0.000000 0.000000 0.000000
2.260113 60.000000 8.201629 -1.294159 0.154744 0.856547 -1.294159 0.154744 0.856547 -0.841446 -0.674735 -1.275659 -0.777218 -1.547596 -1.364929 5.000000 0.000000 0.000000 6.650384 0.772036 2.415794 19.823885 -1.949415 -2.029175 0.000000 0.000000 0.000000 0.000000 0.000000 0.000000 6.869982 -0.923422 -2.827398 7.819136 -0.812956 0.423600 0.000000 0.000000 0.000000 0.000000 0.000000 0.000000 -0.665181 -0.144086 0.782677 -5.004241 -1.156321 1.486935 0.000000 0.000000 0.000000 -4.578338 0.838921 -2.411254 -4.855966 0.380533 0.445151 0.000000 0.000000 0.000000
2.612822 60.000000 12.603205 -0.529289 0.100739 0.602086 -0.529289 0.100739 0.602086 -0.963472 -1.308405 -2.638304 -0.952551 -3.268303 -2.961799 5.000000 0.000000 0.000000 6.906099 0.839514 2.429007 21.794850 -2.389009 -2.254487 0.000000 0.000000 0.000000 0.000000 0.000000 0.000000 8.444821 -0.206886 -5.047744 7.566195 -1.362591 0.409243 161.100068 -30.113227 -107.089800 0.000000 0.000000 0.000000 0.528720 -0.419774 3.465246 -6.385571 -1.342978 3.580477 0.000000 0.000000 0.000000 -5.601450 1.011925 -3.189554 -6.106129 0.326663 -0.288463 0.000000 0.000000 0.000000
2.479909 60.000000 14.737109 -0.719232 0.011652 0.039165 -0.719232 0.011652 0.039165 -0.915651 -1.824368 -3.834526 -0.707609 -4.462796 -4.192512 5.000000 0.000000 0.000000 6.640249 2.103659 0.252094 26.258675 -3.192661 -2.782663 0.000000 0.000000 0.000000 0.000000 0.000000 0.000000 10.116491 -1.092803 -4.455325 8.775586 -1.955291 0.451782 0.000000 0.000000 0.000000 0.000000 0.000000 0.000000 2.701065 -0.665748 5.590404 -5.258424 -0.915105 5.961112 0.000000 0.000000 0.000000 -6.816631 1.344588 -5.956607 -7.914622 0.338043 -0.658312 0.000000 0.000000 0.000000
2.522454 60.000000 14.161507 -1.190066 -0.068065 -0.466524 -1.190066 -0.068065 -0.466524 -0.113632 -1.911121 -4.531263 0.375827 -4.741751 -4.910132 5.000000 0.000000 0.000000 3.164406 3.742121 -4.304008 30.540228 -3.536743 -3.317923 0.000000 0.000000 0.000000 0.000000 0.000000 0.000000 8.782881 -4.120402 1.484853 9.664541 -2.945604 0.448680 0.000000 0.000000 0.000000 0.000000 0.000000 0.000000 7.202498 -0.792626 6.702701 -2.975332 -0.530904 4.616984 0.000000 0.000000 0.000000 -10.178900 1.786744 -8.932293 -10.088024 -0.022480 -2.555386 0.000000 0.000000 0.000000
2.893939 60.000000 12.618531 -1.463879 -0.154012 -1.014424 -1.463879 -0.154012 -1.014424 0.224617 -2.125041 -5.260854 1.045489 -5.329271 -5.795990 5.000000 0.000000 0.000000 1.443481 3.957523 -5.782604 30.051932 -3.625038 -3.260207 0.000000 0.000000 0.000000 0.000000 0.000000 0.000000 8.859856 -6.508281 5.521737 12.337781 -3.689567 0.512384 0.000000 0.000000 0.000000 0.000000 0.000000 0.000000 11.591720 -0.765475 6.662285 0.433606 0.175934 4.439223 0.000000 0.000000 0.000000 -12.622922 1.966787 -10.246649 -15.424659 -0.310212 -4.666295 0.000000 0.000000 0.000000
3.489879 60.000000 10.741720 -0.270787 -0.320767 -2.114474 -0.270787 -0.320767 -2.114474 0.110713 -2.191496 -5.338415 0.883166 -5.552232 -5.957122 5.000000 0.000000 0.000000 2.178274 2.950089 -3.731381 27.858346 -2.740411 -2.959877 0.000000 0.000000 0.000000 0.000000 0.000000 0.000000 8.176562 -3.857581 1.459816 9.275641 -2.984115 0.450510 0.000000 0.000000 0.000000 0.000000 0.000000 0.000000 10.948207 -0.753448 6.620976 -0.819791 -0.084512 4.487124 0.000000 0.000000 0.000000 -11.453896 1.963540 -10.851857 -15.797354 -0.162648 -4.179772 0.000000 0.000000 0.000000
4.577485 60.000000 9.958374 1.189883 -0.588136 -4.016939 1.189883 -0.588136 -4.016939 -0.227710 -1.985088 -4.619866 0.041458 -4.911907 -4.935824 5.000000 0.000000 0.000000 5.772406 2.054348 -0.074071 27.694708 -2.009439 -2.933814 0.000000 0.000000 0.000000 0.000000 0.000000 0.000000 6.351122 -1.550275 -1.395541 6.307643 -1.835459 0.345853 0.000000 0.000000 0.000000 0.000000 0.000000 0.000000 7.920253 -0.874843 7.156859 -5.074966 -0.941168 4.972730 0.000000 0.000000 0.000000 -7.904972 1.892460 -11.285164 -13.130164 -0.145597 -3.964225 0.000000 0.000000 0.000000
5.349533 60.000000 9.013909 3.099376 -0.568994 -4.214054 3.099376 -0.568994 -4.214054 -0.499573 -1.684588 -3.752482 -0.758756 -4.122635 -3.844046 5.000000 0.000000 0.000000 7.537666 1.490067 1.780019 16.622453 -2.165815 -1.625163 0.000000 0.000000 0.000000 0.000000 0.000000 0.000000 4.461518 -0.244529 -2.517546 1.313863 -0.909080 0.098354 0.000000 0.000000 0.000000 0.000000 0.000000 0.000000 6.060832 -0.928684 7.497431 -6.888062 -1.194833 6.405982 0.000000 0.000000 0.000000 -6.561163 1.878675 -11.515585 -8.229549 -0.683390 -5.693853 0.000000 0.000000 0.000000
5.097302 60.000000 9.444477 4.272419 -0.392488 -2.955349 4.272419 -0.392488 -2.955349 -0.602775 -1.249800 -2.669374 -1.241427 -3.061483 -2.654634 5.000000 0.000000 0.000000 5.951921 0.836215 1.920840 4.307634 -2.050859 -0.215977 0.000000 0.000000 0.000000 0.000000 0.000000 0.000000 -0.593117 0.368912 0.029958 -3.431706 0.026802 -0.177270 0.000000 0.000000 0.000000 0.000000 0.000000 0.000000 4.244825 -1.015650 8.388674 -8.675811 -1.407665 7.618932 0.000000 0.000000 0.000000 -7.105548 1.939247 -12.114335 -9.192267 -1.032963 -7.353425 0.000000 0.000000 0.000000
4.261646 60.000000 10.446084 5.034795 -0.070208 -0.085947 5.034795 -0.070208 -0.085947 -0.257763 -0.274318 -0.552970 -0.934174 -0.404827 -0.202983 5.000000 0.000000 0.000000 1.156619 0.130551 0.373912 -0.514215 -0.575698 0.143314 140.835797 19.609596 -110.141910 0.000000 0.000000 0.000000 -8.336421 1.153602 4.468227 -1.354332 0.733935 -0.125489 -145.656921 -27.139843 -89.320354 0.000000 0.000000 0.000000 -0.274101 -1.146736 10.653697 -7.620570 -1.101471 8.641912 0.000000 0.000000 0.000000 -7.727518 2.057955 -13.355142 -10.659440 -0.849553 -6.456391 0.000000 0.000000 0.000000
3.534028 60.000000 10.882226 5.930808 0.254004 2.838445 5.930808 0.254004 2.838445 -0.125156 0.613951 1.545738 -0.492799 1.959424 2.046112 5.000000 0.000000 0.000000 -1.446140 0.174275 -1.232245 -1.724372 0.534361 0.094782 0.000000 0.000000 0.000000 0.000000 0.000000 0.000000 -8.208275 0.745946 5.423149 -1.999710 0.881243 -0.171278 0.000000 0.000000 0.000000 0.000000 0.000000 0.000000 -5.471566 -1.301250 13.337155 -1.838379 -0.094447 9.234693 0.000000 0.000000 0.000000 -6.203255 2.158831 -14.402390 -8.692317 -0.184475 -3.210344 0.000000 0.000000 0.000000
1.694793 60.000000 6.881416 4.619912 0.511112 4.792510 4.619912 0.511112 4.792510 -0.178927 0.762637 1.925675 -0.351267 2.221523 2.315427 5.000000 0.000000 0.000000 1.729898 0.139515 0.679290 1.384108 1.332537 -0.368361 0.000000 0.000000 0.000000 0.000000 0.000000 0.000000 -4.222959 0.060304 3.330921 1.616528 1.597610 0.024108 -148.513527 -22.034010 -96.533823 0.000000 0.000000 0.000000 -1.216428 -1.525490 13.058466 -2.060150 -0.024965 13.368681 0.000000 0.000000 0.000000 -3.838831 2.267159 -14.374824 -5.983653 0.896369 2.290865 0.000000 0.000000 0.000000
-0.754579 60.000000 2.424182 4.003601 0.676587 5.862180 4.003601 0.676587 5.862180 -0.852200 0.568925 1.586768 -1.410820 1.596126 1.758590 5.000000 0.000000 0.000000 5.116815 -0.615575 3.810668 5.558629 1.119178 -0.740507 0.000000 0.000000 0.000000 0.000000 0.000000 0.000000 -0.076953 -1.032322 2.245684 8.705399 2.036192 0.494672 0.000000 0.000000 0.000000 0.000000 0.000000 0.000000 -1.272479 -1.583703 13.513858 2.567595 0.639529 13.232061 0.000000 0.000000 0.000000 -7.487987 2.350629 -11.708134 -6.718062 1.956464 7.566853 0.000000 0.000000 0.000000
-1.246800 60.000000 2.237534 2.697492 0.909035 7.085867 2.697492 0.909035 7.085867 -2.202616 0.456688 1.554862 -3.274560 1.247477 1.524690 5.000000 0.000000 0.000000 6.671773 -0.791479 4.860953 7.446419 1.687836 -1.003903 0.000000 0.000000 0.000000 0.000000 0.000000 0.000000 -1.008999 -1.004879 3.100397 10.264691 2.501085 0.591908 0.000000 0.000000 0.000000 0.000000 0.000000 0.000000 -1.908327 -1.249911 10.304009 6.211402 1.226358 9.257961 0.000000 0.000000 0.000000 -15.754468 1.985761 -3.359232 -3.916457 1.087972 4.936378 0.000000 0.000000 0.000000
